<?xml version="1.0" encoding="utf-8"?>
<!-- Generator: Adobe Illustrator 26.5.0, SVG Export Plug-In . SVG Version: 6.00 Build 0)  -->
<svg version="1.1" id="Layer_1" xmlns="http://www.w3.org/2000/svg" xmlns:xlink="http://www.w3.org/1999/xlink" x="0px" y="0px"
	 viewBox="0 0 327.51 301.55" style="enable-background:new 0 0 327.51 301.55;" xml:space="preserve">
<style type="text/css">
	.st0{display:none;}
	.st1{fill:#3D4538;}
</style>
<g id="text_ref" class="st0">
</g>
<g id="Layer_1_00000093871378512456710160000005571443835462398367_">
</g>
<g id="sjp">
	<g>
		<path class="st1" d="M151.97,88.48v-1.43c0-1.02,0.19-1.75,0.59-2.2c0.39-0.44,0.91-0.66,1.56-0.66s1.17,0.22,1.56,0.66
			c0.39,0.45,0.58,1.18,0.58,2.2v10.92c0,1.02-0.19,1.75-0.58,2.2c-0.39,0.44-0.92,0.66-1.56,0.66c-0.61,0-1.11-0.2-1.5-0.61
			s-0.61-1.07-0.64-1.99c-0.17-2.86-1.64-5.43-4.42-7.71c-2.77-2.28-6.4-3.42-10.89-3.42c-4.73,0-8.49,1.21-11.28,3.65
			c-2.79,2.43-4.18,5.3-4.18,8.6c0,1.7,0.39,3.25,1.17,4.64s1.82,2.53,3.12,3.4c1.29,0.87,2.76,1.57,4.39,2.09
			c1.64,0.53,4.19,1.08,7.66,1.66c5.81,0.95,9.83,1.92,12.04,2.91c2.96,1.33,5.2,3.16,6.72,5.52c1.51,2.35,2.27,5.12,2.27,8.32
			c0,4.9-1.96,9.08-5.87,12.53c-3.91,3.45-9.19,5.18-15.82,5.18c-7.46,0-13.41-2.33-17.87-6.99v2.45c0,1.02-0.19,1.75-0.59,2.2
			c-0.39,0.44-0.91,0.66-1.56,0.66c-0.61,0-1.12-0.22-1.53-0.66s-0.61-1.17-0.61-2.2v-11.84c0-1.06,0.19-1.81,0.59-2.25
			c0.39-0.44,0.91-0.66,1.56-0.66c0.61,0,1.11,0.2,1.5,0.61s0.61,1.07,0.64,1.99c0.17,3.13,1.84,5.98,5.03,8.55
			c3.18,2.57,7.46,3.85,12.84,3.85c5.37,0,9.62-1.34,12.73-4.03s4.67-5.87,4.67-9.55c0-2.24-0.6-4.24-1.79-5.99
			c-1.19-1.75-2.96-3.14-5.31-4.16c-1.64-0.72-5.04-1.51-10.21-2.4c-7.11-1.19-12.23-3.01-15.36-5.46c-3.13-2.45-4.7-5.93-4.7-10.46
			c0-4.49,1.79-8.35,5.38-11.59c3.59-3.23,8.33-4.85,14.21-4.85C142.49,82.81,147.65,84.7,151.97,88.48z"/>
		<path class="st1" d="M167.54,165.64v37.88c0,5.21-1.94,9.71-5.82,13.53c-3.88,3.81-8.51,5.71-13.89,5.71
			c-3.23,0-6.4-0.74-9.52-2.22c-3.11-1.48-6.51-3.9-10.18-7.28v-15.82c0-1.02,0.2-1.75,0.61-2.2c0.41-0.44,0.92-0.66,1.53-0.66
			c0.65,0,1.18,0.22,1.58,0.66c0.41,0.45,0.61,1.18,0.61,2.2l-0.05,13.78c2.62,2.41,5.22,4.23,7.79,5.44
			c2.57,1.21,5.11,1.81,7.63,1.81c2.79,0,5.43-0.68,7.92-2.04c1.87-1.02,3.58-2.74,5.13-5.16s2.32-5,2.32-7.76v-37.88h-16.79
			c-1.05,0-1.8-0.19-2.24-0.58c-0.45-0.39-0.66-0.91-0.66-1.56s0.22-1.16,0.66-1.56c0.44-0.39,1.19-0.59,2.24-0.59h31.34
			c1.02,0,1.75,0.2,2.2,0.59c0.44,0.39,0.66,0.91,0.66,1.56s-0.22,1.17-0.66,1.56c-0.45,0.39-1.18,0.58-2.2,0.58L167.54,165.64
			L167.54,165.64z"/>
		<path class="st1" d="M204.99,150.95v20.21h14.7c1.02,0,1.75,0.19,2.19,0.59c0.45,0.39,0.66,0.91,0.66,1.56
			c0,0.61-0.22,1.12-0.66,1.53s-1.17,0.61-2.19,0.61h-24.76c-1.02,0-1.75-0.2-2.2-0.61c-0.44-0.41-0.66-0.92-0.66-1.53
			c0-0.65,0.22-1.17,0.66-1.56s1.18-0.59,2.2-0.59h5.77v-51.15h-5.77c-1.02,0-1.75-0.19-2.2-0.58c-0.44-0.39-0.66-0.91-0.66-1.56
			c0-0.65,0.22-1.16,0.66-1.56c0.44-0.39,1.18-0.59,2.2-0.59h24.91c5.89,0,10.69,1.74,14.42,5.21s5.59,7.54,5.59,12.2
			c0,2.76-0.61,5.24-1.81,7.46c-1.21,2.21-2.67,3.95-4.37,5.2c-2.55,1.91-5.19,3.3-7.91,4.19c-1.97,0.65-4.42,0.97-7.35,0.97
			L204.99,150.95L204.99,150.95z M204.99,146.67h13.68c3.17,0,6.14-0.71,8.91-2.12c2.77-1.41,4.8-3.14,6.08-5.18
			s1.92-4.12,1.92-6.23c0-3.37-1.45-6.4-4.34-9.08c-2.89-2.69-6.55-4.04-10.97-4.04h-15.26v26.65H204.99z"/>
	</g>
</g>
<g id="sojourners_for_justice_press">
</g>
<g>
	<polygon class="st1" points="163.7,0 160.83,0 160.83,20.77 140.06,20.77 140.06,23.64 160.83,23.64 160.83,44.41 163.7,44.41 
		163.7,23.64 184.47,23.64 184.47,20.77 163.7,20.77 	"/>
	<polygon class="st1" points="90.39,0 87.52,0 87.52,20.77 66.75,20.77 66.75,23.64 87.52,23.64 87.52,44.41 90.39,44.41 
		90.39,23.64 111.16,23.64 111.16,20.77 90.39,20.77 	"/>
	<polygon class="st1" points="47.75,102.95 50.62,102.95 50.62,82.18 71.39,82.18 71.39,79.31 50.62,79.31 50.62,58.54 47.75,58.54 
		47.75,79.31 26.98,79.31 26.98,82.18 47.75,82.18 	"/>
	<polygon class="st1" points="71.39,226.38 71.39,223.51 50.62,223.51 50.62,202.74 47.75,202.74 47.75,223.51 26.98,223.51 
		26.98,226.38 47.75,226.38 47.75,247.15 50.62,247.15 50.62,226.38 	"/>
	<polygon class="st1" points="44.41,154.28 44.41,151.41 23.64,151.41 23.64,130.64 20.77,130.64 20.77,151.41 0,151.41 0,154.28 
		20.77,154.28 20.77,175.05 23.64,175.05 23.64,154.28 	"/>
	<polygon class="st1" points="253.13,79.31 253.13,82.18 273.9,82.18 273.9,102.95 276.77,102.95 276.77,82.18 297.54,82.18 
		297.54,79.31 276.77,79.31 276.77,58.54 273.9,58.54 273.9,79.31 	"/>
	<polygon class="st1" points="276.77,202.74 273.9,202.74 273.9,223.51 253.13,223.51 253.13,226.38 273.9,226.38 273.9,247.15 
		276.77,247.15 276.77,226.38 297.54,226.38 297.54,223.51 276.77,223.51 	"/>
	<polygon class="st1" points="324.52,151.41 303.75,151.41 303.75,130.64 300.88,130.64 300.88,151.41 280.11,151.41 280.11,154.28 
		300.88,154.28 300.88,175.05 303.75,175.05 303.75,154.28 324.52,154.28 	"/>
	<polygon class="st1" points="234.14,44.41 237.01,44.41 237.01,23.64 257.78,23.64 257.78,20.77 237.01,20.77 237.01,0 234.14,0 
		234.14,20.77 213.37,20.77 213.37,23.64 234.14,23.64 	"/>
	<polygon class="st1" points="163.7,257.14 160.83,257.14 160.83,277.91 140.06,277.91 140.06,280.78 160.83,280.78 160.83,301.55 
		163.7,301.55 163.7,280.78 184.47,280.78 184.47,277.91 163.7,277.91 	"/>
	<polygon class="st1" points="90.39,257.14 87.52,257.14 87.52,277.91 66.75,277.91 66.75,280.78 87.52,280.78 87.52,301.55 
		90.39,301.55 90.39,280.78 111.16,280.78 111.16,277.91 90.39,277.91 	"/>
	<polygon class="st1" points="237.01,257.14 234.14,257.14 234.14,277.91 213.37,277.91 213.37,280.78 234.14,280.78 234.14,301.55 
		237.01,301.55 237.01,280.78 257.78,280.78 257.78,277.91 237.01,277.91 	"/>
</g>
</svg>
