<?xml version="1.0" encoding="utf-8"?>
<!-- Generator: Adobe Illustrator 26.5.0, SVG Export Plug-In . SVG Version: 6.00 Build 0)  -->
<svg version="1.1" xmlns="http://www.w3.org/2000/svg" xmlns:xlink="http://www.w3.org/1999/xlink" x="0px" y="0px"
	 viewBox="0 0 931.85 332.12" style="enable-background:new 0 0 931.85 332.12;" xml:space="preserve">
<style type="text/css">
	.st0{display:none;}
	.st1{display:inline;}
	.st2{fill:#010101;}
</style>
<g id="text_ref" class="st0">
</g>
<g id="Layer_1">
	<polygon class="st2" points="86.58,120.77 88.58,120.77 88.58,96.57 112.79,96.57 112.79,94.57 88.58,94.57 88.58,70.37 
		86.58,70.37 86.58,94.57 62.38,94.57 62.38,96.57 86.58,96.57 	"/>
	<polygon class="st2" points="82.1,172.39 82.1,170.39 57.9,170.39 57.9,146.18 55.9,146.18 55.9,170.39 31.69,170.39 31.69,172.39 
		55.9,172.39 55.9,196.59 57.9,196.59 57.9,172.39 	"/>
	<polygon class="st2" points="917.5,170.24 893.3,170.24 893.3,146.04 891.3,146.04 891.3,170.24 867.09,170.24 867.09,172.24 
		891.3,172.24 891.3,196.45 893.3,196.45 893.3,172.24 917.5,172.24 	"/>
	<polygon class="st2" points="112.79,248.21 112.79,246.21 88.58,246.21 88.58,222.01 86.58,222.01 86.58,246.21 62.38,246.21 
		62.38,248.21 86.58,248.21 86.58,272.41 88.58,272.41 88.58,248.21 	"/>
	<polygon class="st2" points="198.56,17.52 196.56,17.52 196.56,41.72 172.36,41.72 172.36,43.72 196.56,43.72 196.56,67.93 
		198.56,67.93 198.56,43.72 222.76,43.72 222.76,41.72 198.56,41.72 	"/>
	<polygon class="st2" points="133.44,17.52 131.44,17.52 131.44,41.72 107.23,41.72 107.23,43.72 131.44,43.72 131.44,67.93 
		133.44,67.93 133.44,43.72 157.64,43.72 157.64,41.72 133.44,41.72 	"/>
	<polygon class="st2" points="262.64,67.93 264.64,67.93 264.64,43.72 288.84,43.72 288.84,41.72 264.64,41.72 264.64,17.52 
		262.64,17.52 262.64,41.72 238.44,41.72 238.44,43.72 262.64,43.72 	"/>
	<polygon class="st2" points="475.47,17.52 473.47,17.52 473.47,41.72 449.27,41.72 449.27,43.72 473.47,43.72 473.47,67.93 
		475.47,67.93 475.47,43.72 499.68,43.72 499.68,41.72 475.47,41.72 	"/>
	<polygon class="st2" points="410.35,17.52 408.35,17.52 408.35,41.72 384.15,41.72 384.15,43.72 408.35,43.72 408.35,67.93 
		410.35,67.93 410.35,43.72 434.55,43.72 434.55,41.72 410.35,41.72 	"/>
	<polygon class="st2" points="539.55,67.93 541.55,67.93 541.55,43.72 565.75,43.72 565.75,41.72 541.55,41.72 541.55,17.52 
		539.55,17.52 539.55,41.72 515.35,41.72 515.35,43.72 539.55,43.72 	"/>
	<polygon class="st2" points="757.64,17.52 755.64,17.52 755.64,41.72 731.44,41.72 731.44,43.72 755.64,43.72 755.64,67.93 
		757.64,67.93 757.64,43.72 781.84,43.72 781.84,41.72 757.64,41.72 	"/>
	<polygon class="st2" points="692.52,17.52 690.52,17.52 690.52,41.72 666.31,41.72 666.31,43.72 690.52,43.72 690.52,67.93 
		692.52,67.93 692.52,43.72 716.72,43.72 716.72,41.72 692.52,41.72 	"/>
	<polygon class="st2" points="821.72,67.93 823.72,67.93 823.72,43.72 847.92,43.72 847.92,41.72 823.72,41.72 823.72,17.52 
		821.72,17.52 821.72,41.72 797.52,41.72 797.52,43.72 821.72,43.72 	"/>
	<polygon class="st2" points="198.56,267.25 196.56,267.25 196.56,291.45 172.36,291.45 172.36,293.45 196.56,293.45 196.56,317.65 
		198.56,317.65 198.56,293.45 222.76,293.45 222.76,291.45 198.56,291.45 	"/>
	<polygon class="st2" points="133.44,267.25 131.44,267.25 131.44,291.45 107.23,291.45 107.23,293.45 131.44,293.45 131.44,317.65 
		133.44,317.65 133.44,293.45 157.64,293.45 157.64,291.45 133.44,291.45 	"/>
	<polygon class="st2" points="264.64,267.25 262.64,267.25 262.64,291.45 238.44,291.45 238.44,293.45 262.64,293.45 262.64,317.65 
		264.64,317.65 264.64,293.45 288.84,293.45 288.84,291.45 264.64,291.45 	"/>
	<polygon class="st2" points="475.47,267.25 473.47,267.25 473.47,291.45 449.27,291.45 449.27,293.45 473.47,293.45 473.47,317.65 
		475.47,317.65 475.47,293.45 499.68,293.45 499.68,291.45 475.47,291.45 	"/>
	<polygon class="st2" points="410.35,267.25 408.35,267.25 408.35,291.45 384.15,291.45 384.15,293.45 408.35,293.45 408.35,317.65 
		410.35,317.65 410.35,293.45 434.55,293.45 434.55,291.45 410.35,291.45 	"/>
	<polygon class="st2" points="541.55,267.25 539.55,267.25 539.55,291.45 515.35,291.45 515.35,293.45 539.55,293.45 539.55,317.65 
		541.55,317.65 541.55,293.45 565.75,293.45 565.75,291.45 541.55,291.45 	"/>
	<polygon class="st2" points="757.64,267.25 755.64,267.25 755.64,291.45 731.44,291.45 731.44,293.45 755.64,293.45 755.64,317.65 
		757.64,317.65 757.64,293.45 781.84,293.45 781.84,291.45 757.64,291.45 	"/>
	<polygon class="st2" points="692.52,267.25 690.52,267.25 690.52,291.45 666.31,291.45 666.31,293.45 690.52,293.45 690.52,317.65 
		692.52,317.65 692.52,293.45 716.72,293.45 716.72,291.45 692.52,291.45 	"/>
	<polygon class="st2" points="823.72,267.25 821.72,267.25 821.72,291.45 797.52,291.45 797.52,293.45 821.72,293.45 821.72,317.65 
		823.72,317.65 823.72,293.45 847.92,293.45 847.92,291.45 823.72,291.45 	"/>
	<polygon class="st2" points="302.65,222.01 300.65,222.01 300.65,246.21 276.45,246.21 276.45,248.21 300.65,248.21 300.65,272.41 
		302.65,272.41 302.65,248.21 326.86,248.21 326.86,246.21 302.65,246.21 	"/>
	<polygon class="st2" points="392.93,247.92 392.93,245.92 368.73,245.92 368.73,221.72 366.73,221.72 366.73,245.92 342.53,245.92 
		342.53,247.92 366.73,247.92 366.73,272.12 368.73,272.12 368.73,247.92 	"/>
	<polygon class="st2" points="302.65,70.37 300.65,70.37 300.65,94.57 276.45,94.57 276.45,96.57 300.65,96.57 300.65,120.77 
		302.65,120.77 302.65,96.57 326.86,96.57 326.86,94.57 302.65,94.57 	"/>
	<polygon class="st2" points="366.73,120.48 368.73,120.48 368.73,96.28 392.93,96.28 392.93,94.28 368.73,94.28 368.73,70.08 
		366.73,70.08 366.73,94.28 342.53,94.28 342.53,96.28 366.73,96.28 	"/>
	<polygon class="st2" points="585.43,222.01 583.43,222.01 583.43,246.21 559.23,246.21 559.23,248.21 583.43,248.21 583.43,272.41 
		585.43,272.41 585.43,248.21 609.63,248.21 609.63,246.21 585.43,246.21 	"/>
	<polygon class="st2" points="675.6,247.92 675.6,245.92 651.4,245.92 651.4,221.72 649.4,221.72 649.4,245.92 625.19,245.92 
		625.19,247.92 649.4,247.92 649.4,272.12 651.4,272.12 651.4,247.92 	"/>
	<polygon class="st2" points="585.43,70.37 583.43,70.37 583.43,94.57 559.23,94.57 559.23,96.57 583.43,96.57 583.43,120.77 
		585.43,120.77 585.43,96.57 609.63,96.57 609.63,94.57 585.43,94.57 	"/>
	<polygon class="st2" points="649.4,120.48 651.4,120.48 651.4,96.28 675.6,96.28 675.6,94.28 651.4,94.28 651.4,70.08 649.4,70.08 
		649.4,94.28 625.19,94.28 625.19,96.28 649.4,96.28 	"/>
	<polygon class="st2" points="841.89,94.57 841.89,96.57 866.09,96.57 866.09,120.77 868.09,120.77 868.09,96.57 892.3,96.57 
		892.3,94.57 868.09,94.57 868.09,70.37 866.09,70.37 866.09,94.57 	"/>
	<polygon class="st2" points="868.09,221.72 866.09,221.72 866.09,245.92 841.89,245.92 841.89,247.92 866.09,247.92 866.09,272.12 
		868.09,272.12 868.09,247.92 892.3,247.92 892.3,245.92 868.09,245.92 	"/>
	<g>
		<path class="st2" d="M100.15,179.19c-0.05,0.48-0.18,0.82-0.37,1c-0.19,0.19-0.5,0.28-0.91,0.28c-0.45,0-0.78-0.13-1-0.39
			c-0.22-0.26-0.34-0.69-0.38-1.28l-0.21-3.72v-0.29c0-0.51,0.1-0.88,0.3-1.09c0.2-0.21,0.53-0.32,0.99-0.32
			c0.64,0,1.1,0.46,1.38,1.38c0.13,0.46,0.25,0.81,0.37,1.04c0.37,0.75,0.96,1.33,1.77,1.73c0.81,0.41,1.77,0.61,2.89,0.61
			c1.38,0,2.5-0.33,3.36-0.98c0.86-0.65,1.29-1.49,1.29-2.5c0-0.84-0.26-1.52-0.79-2.04c-0.53-0.51-1.3-0.84-2.32-0.99l-2.37-0.32
			c-2.21-0.31-3.83-0.89-4.84-1.75c-1.02-0.85-1.52-2.06-1.52-3.61c0-1.64,0.68-3.01,2.03-4.12c1.35-1.11,3.04-1.67,5.06-1.67
			c0.59,0,1.21,0.08,1.86,0.23c0.65,0.15,1.39,0.4,2.21,0.73c0.02-0.31,0.11-0.52,0.26-0.64s0.41-0.18,0.77-0.18
			c0.47,0,0.8,0.07,0.98,0.21c0.18,0.14,0.29,0.47,0.34,0.99l0.22,3.35v0.16c0,0.38-0.11,0.67-0.32,0.87
			c-0.21,0.21-0.51,0.31-0.9,0.31c-0.57,0-1-0.4-1.32-1.19c-0.15-0.45-0.3-0.79-0.45-1.01c-0.35-0.53-0.86-0.95-1.52-1.23
			c-0.66-0.29-1.42-0.43-2.26-0.43c-1.29,0-2.34,0.32-3.15,0.96s-1.21,1.48-1.21,2.52c0,0.81,0.3,1.45,0.91,1.92
			c0.6,0.47,1.53,0.79,2.77,0.96l2.56,0.32c1.86,0.25,3.26,0.82,4.2,1.71s1.41,2.1,1.41,3.61c0,1.8-0.67,3.24-2,4.32
			c-1.34,1.08-3.12,1.63-5.35,1.63c-0.77,0-1.53-0.09-2.29-0.27C101.81,179.85,101.01,179.57,100.15,179.19z"/>
		<path class="st2" d="M132.95,172.36c0,2.29-0.78,4.16-2.34,5.61c-1.56,1.45-3.59,2.18-6.08,2.18c-2.48,0-4.5-0.73-6.06-2.18
			s-2.34-3.32-2.34-5.61c0-2.29,0.78-4.15,2.34-5.6s3.58-2.17,6.06-2.17s4.5,0.73,6.07,2.18
			C132.17,168.22,132.95,170.08,132.95,172.36z M124.54,177.89c1.65,0,3-0.52,4.05-1.56c1.05-1.04,1.58-2.37,1.58-3.98
			s-0.53-2.94-1.59-3.99c-1.06-1.05-2.4-1.58-4.04-1.58c-1.63,0-2.98,0.53-4.03,1.58c-1.05,1.05-1.58,2.38-1.58,3.99
			c0,1.62,0.52,2.95,1.57,3.99C121.54,177.37,122.89,177.89,124.54,177.89z"/>
		<path class="st2" d="M149.16,178.8c0,1.36-0.08,2.39-0.24,3.09c-0.16,0.71-0.42,1.29-0.78,1.76c-0.61,0.79-1.45,1.39-2.53,1.8
			s-2.34,0.62-3.8,0.62c-1.21,0-2.09-0.12-2.66-0.37c-0.57-0.25-0.85-0.63-0.85-1.14c0-0.33,0.14-0.62,0.41-0.87s0.6-0.38,0.97-0.38
			c0.29,0,0.74,0.04,1.35,0.12s1.07,0.12,1.38,0.12c1.56,0,2.67-0.36,3.33-1.08c0.66-0.72,0.99-1.97,0.99-3.75V167.2h-6.27
			c-1.04,0-1.69-0.08-1.95-0.25s-0.39-0.46-0.39-0.9c0-0.37,0.11-0.65,0.32-0.84c0.21-0.19,0.53-0.28,0.96-0.28h8.82
			c0.29,0,0.51,0.06,0.68,0.18c0.16,0.12,0.25,0.28,0.25,0.48V178.8z M144.83,160.32c0-1.14,0.11-1.87,0.32-2.17
			s0.67-0.46,1.36-0.46c0.65,0,1.08,0.12,1.29,0.37c0.21,0.25,0.31,0.84,0.31,1.79c0,0.94-0.1,1.51-0.29,1.72
			c-0.19,0.21-0.63,0.31-1.31,0.31c-0.69,0-1.15-0.1-1.36-0.31C144.94,161.37,144.83,160.95,144.83,160.32z"/>
		<path class="st2" d="M172.36,172.36c0,2.29-0.78,4.16-2.34,5.61c-1.56,1.45-3.59,2.18-6.08,2.18c-2.48,0-4.5-0.73-6.06-2.18
			s-2.34-3.32-2.34-5.61c0-2.29,0.78-4.15,2.34-5.6s3.58-2.17,6.06-2.17s4.5,0.73,6.07,2.18
			C171.57,168.22,172.36,170.08,172.36,172.36z M163.94,177.89c1.65,0,3-0.52,4.05-1.56c1.05-1.04,1.58-2.37,1.58-3.98
			s-0.53-2.94-1.59-3.99c-1.06-1.05-2.4-1.58-4.04-1.58c-1.63,0-2.98,0.53-4.03,1.58c-1.05,1.05-1.58,2.38-1.58,3.99
			c0,1.62,0.52,2.95,1.57,3.99C160.95,177.37,162.29,177.89,163.94,177.89z"/>
		<path class="st2" d="M179.65,173.83c0,1.35,0.28,2.33,0.85,2.95c0.57,0.62,1.46,0.93,2.69,0.93c1.16,0,2.16-0.37,2.99-1.11
			s1.24-1.66,1.24-2.78v-6.63h-2.2c-0.42,0-0.72-0.09-0.91-0.26c-0.19-0.18-0.28-0.45-0.28-0.82c0-0.4,0.1-0.7,0.3-0.89
			c0.2-0.19,0.53-0.29,0.98-0.29h3.41c0.41,0,0.69,0.09,0.86,0.26c0.17,0.18,0.25,0.61,0.25,1.29v11h0.74c0.52,0,0.9,0.09,1.13,0.26
			c0.23,0.17,0.34,0.45,0.34,0.85c0,0.38-0.11,0.67-0.33,0.87c-0.22,0.19-0.54,0.29-0.95,0.29h-2.44c-0.29,0-0.51-0.06-0.67-0.18
			c-0.16-0.12-0.24-0.28-0.24-0.48V178c-1.03,0.79-1.91,1.33-2.64,1.63c-0.73,0.29-1.5,0.44-2.32,0.44c-1.76,0-3.09-0.47-3.97-1.4
			s-1.32-2.35-1.32-4.25v-7.22h-0.34c-0.73,0-1.22-0.08-1.49-0.25c-0.27-0.17-0.4-0.47-0.4-0.89c0-0.37,0.1-0.65,0.31-0.84
			c0.21-0.19,0.53-0.28,0.97-0.28h2.42c0.37,0,0.63,0.08,0.78,0.22s0.22,0.48,0.22,0.99V173.83z"/>
		<path class="st2" d="M201.77,177.49h5.32c0.42,0,0.72,0.09,0.92,0.26c0.2,0.18,0.3,0.46,0.3,0.84c0,0.44-0.09,0.74-0.28,0.91
			c-0.19,0.17-0.53,0.25-1.03,0.25h-10.48c-0.42,0-0.73-0.1-0.95-0.29c-0.21-0.19-0.32-0.48-0.32-0.87c0-0.37,0.11-0.65,0.33-0.83
			c0.22-0.18,0.56-0.27,1.02-0.27h2.79V167.2h-1.09c-1.04,0-1.68-0.08-1.94-0.25s-0.38-0.46-0.38-0.9c0-0.37,0.1-0.65,0.31-0.84
			c0.21-0.19,0.53-0.28,0.95-0.28h3.66c0.29,0,0.51,0.06,0.66,0.17c0.15,0.11,0.22,0.28,0.22,0.49v2.73
			c1.02-1.27,2.07-2.22,3.17-2.84c1.1-0.62,2.29-0.93,3.56-0.93c0.95,0,1.72,0.19,2.31,0.57c0.59,0.38,0.88,0.88,0.88,1.48
			c0,0.39-0.15,0.74-0.44,1.05c-0.29,0.3-0.62,0.46-0.97,0.46c-0.25,0-0.66-0.16-1.24-0.49c-0.58-0.33-1.1-0.49-1.56-0.49
			c-0.83,0-1.71,0.3-2.64,0.89c-0.92,0.59-1.95,1.53-3.07,2.82V177.49z"/>
		<path class="st2" d="M217.08,177.49v-10.28h-0.3c-0.73,0-1.23-0.08-1.5-0.26c-0.27-0.17-0.41-0.47-0.41-0.9
			c0-0.4,0.11-0.68,0.34-0.86c0.22-0.18,0.59-0.26,1.09-0.26h0.75h1.54c0.29,0,0.51,0.06,0.67,0.18c0.16,0.12,0.24,0.28,0.24,0.48
			v1.09c0.78-0.73,1.55-1.26,2.32-1.61c0.76-0.35,1.56-0.52,2.38-0.52c1.61,0,2.88,0.5,3.81,1.51c0.92,1,1.39,2.39,1.39,4.17v7.26
			h0.76c0.54,0,0.92,0.09,1.16,0.26c0.24,0.18,0.36,0.46,0.36,0.84c0,0.42-0.13,0.71-0.38,0.89c-0.25,0.18-0.7,0.26-1.34,0.26h-3.55
			c-0.69,0-1.12-0.08-1.32-0.24c-0.19-0.16-0.29-0.46-0.29-0.91c0-0.42,0.11-0.71,0.34-0.87c0.23-0.16,0.65-0.24,1.28-0.24h0.57
			v-6.67c0-1.25-0.28-2.2-0.85-2.86s-1.39-0.99-2.47-0.99c-1.09,0-2.06,0.37-2.89,1.11c-0.83,0.74-1.25,1.65-1.25,2.74v6.67h0.56
			c0.64,0,1.07,0.08,1.3,0.24c0.22,0.16,0.34,0.45,0.34,0.87c0,0.45-0.1,0.75-0.29,0.91s-0.66,0.24-1.41,0.24h-2.92h-0.87
			c-0.44,0-0.77-0.09-0.99-0.28c-0.22-0.19-0.33-0.48-0.33-0.87c0-0.43,0.13-0.72,0.38-0.87c0.25-0.15,0.74-0.23,1.47-0.23H217.08z"
			/>
		<path class="st2" d="M237.33,173.05c0.08,1.54,0.61,2.74,1.56,3.58c0.96,0.84,2.26,1.26,3.92,1.26c1.25,0,2.61-0.33,4.09-1
			s2.37-1,2.68-1c0.32,0,0.59,0.1,0.8,0.3s0.32,0.45,0.32,0.75c0,0.31-0.11,0.59-0.34,0.85c-0.22,0.26-0.58,0.51-1.07,0.75
			c-1.07,0.52-2.17,0.92-3.31,1.19c-1.14,0.28-2.27,0.41-3.39,0.41c-2.44,0-4.39-0.7-5.85-2.11c-1.46-1.41-2.2-3.27-2.2-5.59
			c0-2.36,0.78-4.27,2.33-5.74c1.55-1.46,3.57-2.2,6.06-2.2c2.25,0,4.12,0.68,5.61,2.05c1.49,1.37,2.23,3.03,2.23,4.97
			c0,0.6-0.13,1-0.38,1.2c-0.25,0.2-0.93,0.3-2.04,0.3h-0.24H237.33z M237.41,170.95h10.44c-0.16-1.27-0.69-2.29-1.59-3.07
			c-0.9-0.77-2.01-1.16-3.33-1.16c-1.42,0-2.62,0.37-3.59,1.12C238.36,168.58,237.72,169.62,237.41,170.95z"/>
		<path class="st2" d="M260.88,177.49h5.32c0.42,0,0.72,0.09,0.92,0.26c0.2,0.18,0.3,0.46,0.3,0.84c0,0.44-0.09,0.74-0.28,0.91
			c-0.19,0.17-0.53,0.25-1.03,0.25h-10.48c-0.42,0-0.73-0.1-0.95-0.29c-0.21-0.19-0.32-0.48-0.32-0.87c0-0.37,0.11-0.65,0.33-0.83
			c0.22-0.18,0.56-0.27,1.02-0.27h2.79V167.2h-1.09c-1.04,0-1.68-0.08-1.94-0.25s-0.38-0.46-0.38-0.9c0-0.37,0.1-0.65,0.31-0.84
			c0.21-0.19,0.53-0.28,0.95-0.28H260c0.29,0,0.51,0.06,0.66,0.17c0.15,0.11,0.22,0.28,0.22,0.49v2.73
			c1.02-1.27,2.07-2.22,3.17-2.84c1.1-0.62,2.29-0.93,3.56-0.93c0.95,0,1.72,0.19,2.31,0.57c0.59,0.38,0.88,0.88,0.88,1.48
			c0,0.39-0.15,0.74-0.44,1.05c-0.29,0.3-0.62,0.46-0.97,0.46c-0.25,0-0.66-0.16-1.24-0.49c-0.58-0.33-1.1-0.49-1.56-0.49
			c-0.83,0-1.71,0.3-2.64,0.89c-0.92,0.59-1.95,1.53-3.07,2.82V177.49z"/>
		<path class="st2" d="M275.16,178.59v-2.85c0-0.47,0.09-0.81,0.26-1.01c0.18-0.2,0.46-0.3,0.86-0.3c0.44,0,0.79,0.3,1.04,0.9
			c0.17,0.36,0.33,0.64,0.46,0.82c0.45,0.58,1.11,1.04,1.99,1.39c0.88,0.35,1.84,0.52,2.9,0.52c1.13,0,2.04-0.23,2.73-0.69
			c0.68-0.46,1.03-1.06,1.03-1.81c0-0.76-0.28-1.3-0.83-1.62c-0.55-0.32-1.49-0.48-2.83-0.48h-0.88c-2.18,0-3.84-0.38-4.99-1.14
			s-1.71-1.86-1.71-3.3c0-1.41,0.56-2.51,1.67-3.29c1.12-0.78,2.69-1.17,4.71-1.17c0.82,0,1.66,0.12,2.52,0.34
			c0.86,0.23,1.3,0.34,1.35,0.34c0.12,0,0.34-0.1,0.67-0.31c0.33-0.21,0.66-0.31,0.98-0.31c0.36,0,0.63,0.13,0.81,0.4
			c0.18,0.27,0.26,0.67,0.26,1.2v1.88c0,0.57-0.09,0.98-0.26,1.23s-0.44,0.38-0.82,0.38c-0.32,0-0.72-0.27-1.19-0.82
			c-0.33-0.37-0.6-0.66-0.82-0.85c-0.57-0.52-1.17-0.9-1.81-1.13c-0.64-0.23-1.39-0.34-2.26-0.34c-1,0-1.81,0.22-2.43,0.67
			c-0.62,0.44-0.92,1.01-0.92,1.69c0,0.67,0.31,1.15,0.95,1.44c0.63,0.29,1.99,0.46,4.07,0.5c2.22,0.05,3.85,0.44,4.87,1.16
			c1.03,0.72,1.54,1.84,1.54,3.34c0,1.44-0.57,2.6-1.7,3.46c-1.13,0.87-2.66,1.3-4.58,1.3c-0.61,0-1.29-0.06-2.04-0.17
			s-1.69-0.3-2.82-0.57c-0.37,0.25-0.69,0.43-0.96,0.55c-0.27,0.12-0.49,0.18-0.67,0.18c-0.37,0-0.66-0.13-0.86-0.39
			C275.26,179.46,275.16,179.09,275.16,178.59z"/>
	</g>
	<path class="st2" d="M419.89,215.01h-4.33c-0.8,0-1.32-0.08-1.55-0.25c-0.24-0.17-0.35-0.47-0.35-0.91c0-0.4,0.09-0.69,0.28-0.87
		c0.19-0.19,0.49-0.28,0.91-0.28h0.72h8.93h0.75c0.38,0,0.67,0.1,0.86,0.29c0.19,0.19,0.28,0.48,0.28,0.87
		c0,0.44-0.12,0.74-0.35,0.91c-0.24,0.17-0.75,0.25-1.54,0.25h-2.07v10.24c0,2.45-0.52,4.21-1.55,5.3
		c-1.04,1.08-2.71,1.63-5.02,1.63c-1,0-1.96-0.12-2.87-0.34s-1.81-0.58-2.71-1.07c-0.37-0.2-0.62-0.4-0.74-0.6
		c-0.12-0.2-0.18-0.56-0.18-1.08v-3.77c0-0.75,0.08-1.22,0.23-1.4c0.16-0.19,0.42-0.28,0.81-0.28c0.26,0,0.48,0.05,0.66,0.15
		c0.18,0.1,0.32,0.25,0.4,0.44c0.04,0.11,0.07,0.24,0.1,0.38s0.03,0.42,0.03,0.8v0.16c0,0.35,0.02,0.68,0.05,0.97
		s0.08,0.58,0.14,0.87c0.24,0.84,0.7,1.51,1.39,2c0.69,0.49,1.53,0.73,2.52,0.73c1.48,0,2.54-0.41,3.21-1.24
		c0.66-0.83,0.99-2.18,0.99-4.05V215.01z"/>
	<path class="st2" d="M433.17,225.8c0,1.35,0.28,2.33,0.85,2.95c0.57,0.62,1.46,0.93,2.69,0.93c1.16,0,2.16-0.37,2.99-1.11
		s1.24-1.66,1.24-2.78v-6.63h-2.2c-0.42,0-0.72-0.09-0.91-0.26c-0.19-0.18-0.28-0.45-0.28-0.82c0-0.4,0.1-0.7,0.3-0.89
		c0.2-0.19,0.53-0.29,0.98-0.29h3.41c0.41,0,0.69,0.09,0.86,0.26c0.17,0.18,0.25,0.61,0.25,1.29v11h0.74c0.52,0,0.9,0.09,1.13,0.26
		c0.23,0.17,0.34,0.45,0.34,0.85c0,0.38-0.11,0.67-0.33,0.87c-0.22,0.19-0.54,0.29-0.95,0.29h-2.44c-0.29,0-0.51-0.06-0.67-0.18
		c-0.16-0.12-0.24-0.28-0.24-0.48v-1.09c-1.03,0.79-1.91,1.33-2.64,1.63c-0.73,0.29-1.5,0.44-2.32,0.44c-1.76,0-3.09-0.47-3.97-1.4
		s-1.32-2.35-1.32-4.25v-7.22h-0.34c-0.73,0-1.22-0.08-1.49-0.25c-0.27-0.17-0.4-0.47-0.4-0.89c0-0.37,0.1-0.65,0.31-0.84
		c0.21-0.19,0.53-0.28,0.97-0.28h2.42c0.37,0,0.63,0.08,0.78,0.22s0.22,0.48,0.22,0.99V225.8z"/>
	<path class="st2" d="M449.87,230.56v-2.85c0-0.47,0.09-0.81,0.26-1.01c0.18-0.2,0.46-0.3,0.86-0.3c0.44,0,0.79,0.3,1.04,0.9
		c0.17,0.36,0.33,0.64,0.46,0.82c0.45,0.58,1.11,1.04,1.99,1.39c0.88,0.35,1.84,0.52,2.9,0.52c1.13,0,2.04-0.23,2.73-0.69
		c0.68-0.46,1.03-1.06,1.03-1.81c0-0.76-0.28-1.3-0.83-1.62c-0.55-0.32-1.49-0.48-2.83-0.48h-0.88c-2.18,0-3.84-0.38-4.99-1.14
		s-1.71-1.86-1.71-3.3c0-1.41,0.56-2.51,1.67-3.29c1.12-0.78,2.69-1.17,4.71-1.17c0.82,0,1.66,0.12,2.52,0.34
		c0.86,0.23,1.3,0.34,1.35,0.34c0.12,0,0.34-0.1,0.67-0.31c0.33-0.21,0.66-0.31,0.98-0.31c0.36,0,0.63,0.13,0.81,0.4
		c0.18,0.27,0.26,0.67,0.26,1.2v1.88c0,0.57-0.09,0.98-0.26,1.23s-0.44,0.38-0.82,0.38c-0.32,0-0.72-0.27-1.19-0.82
		c-0.33-0.37-0.6-0.66-0.82-0.85c-0.57-0.52-1.17-0.9-1.81-1.13c-0.64-0.23-1.39-0.34-2.26-0.34c-1,0-1.81,0.22-2.43,0.67
		c-0.62,0.44-0.92,1.01-0.92,1.69c0,0.67,0.31,1.15,0.95,1.44c0.63,0.29,1.99,0.46,4.07,0.5c2.22,0.05,3.85,0.44,4.87,1.16
		c1.03,0.72,1.54,1.84,1.54,3.34c0,1.44-0.57,2.6-1.7,3.46c-1.13,0.87-2.66,1.3-4.58,1.3c-0.61,0-1.29-0.06-2.04-0.17
		s-1.69-0.3-2.82-0.57c-0.37,0.25-0.69,0.43-0.96,0.55c-0.27,0.12-0.49,0.18-0.67,0.18c-0.37,0-0.66-0.13-0.86-0.39
		C449.97,231.43,449.87,231.05,449.87,230.56z"/>
	<path class="st2" d="M480.94,217.8c0.52,0,0.91,0.09,1.15,0.27c0.24,0.18,0.36,0.47,0.36,0.87c0,0.37-0.11,0.65-0.34,0.84
		c-0.22,0.19-0.56,0.28-1.01,0.28h-6.49v5.35c0,1.75,0.23,2.91,0.68,3.46c0.45,0.56,1.23,0.83,2.33,0.83c0.97,0,2.14-0.28,3.49-0.85
		s2.2-0.85,2.52-0.85c0.3,0,0.55,0.11,0.76,0.32c0.21,0.21,0.31,0.48,0.31,0.79c0,0.35-0.13,0.66-0.39,0.92s-0.71,0.52-1.34,0.76
		c-1.05,0.42-1.99,0.72-2.83,0.91s-1.63,0.29-2.36,0.29c-1.25,0-2.3-0.2-3.15-0.6s-1.48-1-1.9-1.79c-0.21-0.37-0.37-0.82-0.46-1.33
		s-0.14-1.3-0.14-2.37v-0.5v-5.35h-2.72c-0.45,0-0.78-0.09-0.98-0.26s-0.3-0.46-0.3-0.86c0-0.44,0.14-0.74,0.42-0.9
		c0.28-0.16,0.87-0.24,1.78-0.24h1.81v-3.29v-0.85c0-0.46,0.1-0.8,0.3-1.02c0.2-0.22,0.5-0.33,0.92-0.33c0.47,0,0.8,0.13,0.98,0.4
		c0.18,0.27,0.27,0.88,0.27,1.83v3.25H480.94z"/>
	<path class="st2" d="M497.75,229.45h5.15c0.42,0,0.72,0.09,0.92,0.26c0.2,0.18,0.3,0.46,0.3,0.84c0,0.44-0.09,0.74-0.28,0.91
		c-0.19,0.17-0.53,0.25-1.03,0.25h-12.42c-0.43,0-0.75-0.1-0.96-0.29s-0.32-0.48-0.32-0.87c0-0.37,0.11-0.65,0.34-0.83
		c0.22-0.18,0.56-0.27,1.01-0.27h4.89v-10.29h-3.14c-0.44,0-0.77-0.1-1-0.29s-0.35-0.48-0.35-0.85s0.11-0.65,0.32-0.84
		c0.21-0.19,0.53-0.28,0.96-0.28h4.7c0.29,0,0.52,0.06,0.68,0.18c0.17,0.12,0.25,0.28,0.25,0.48V229.45z M494.79,212.29
		c0-1.15,0.1-1.88,0.31-2.18c0.21-0.3,0.65-0.45,1.34-0.45c0.66,0,1.1,0.13,1.31,0.38s0.32,0.85,0.32,1.79c0,0.92-0.1,1.49-0.3,1.71
		c-0.2,0.22-0.64,0.33-1.34,0.33c-0.68,0-1.13-0.1-1.34-0.3S494.79,212.93,494.79,212.29z"/>
	<path class="st2" d="M520.79,217.86v-0.06c0-0.35,0.1-0.61,0.3-0.78c0.2-0.17,0.52-0.25,0.95-0.25c0.44,0,0.74,0.13,0.91,0.38
		c0.17,0.26,0.25,0.79,0.25,1.59v2.98c0,0.4-0.1,0.69-0.3,0.89c-0.2,0.2-0.51,0.3-0.91,0.3c-0.29,0-0.54-0.08-0.75-0.25
		c-0.21-0.17-0.46-0.51-0.76-1.03c-0.51-0.87-1.14-1.52-1.87-1.96c-0.73-0.44-1.57-0.67-2.53-0.67c-1.67,0-3.02,0.49-4.06,1.48
		c-1.04,0.98-1.56,2.25-1.56,3.82c0,1.59,0.5,2.89,1.5,3.9c1,1.01,2.28,1.51,3.86,1.51c0.72,0,1.4-0.1,2.04-0.3
		c0.65-0.2,1.26-0.49,1.84-0.89c0.2-0.13,0.47-0.33,0.82-0.59c0.69-0.57,1.24-0.85,1.63-0.85c0.33,0,0.6,0.1,0.81,0.31
		c0.21,0.21,0.31,0.48,0.31,0.81c0,0.84-0.8,1.71-2.4,2.59s-3.29,1.32-5.09,1.32c-2.32,0-4.25-0.74-5.79-2.23
		c-1.54-1.49-2.32-3.34-2.32-5.56c0-2.22,0.77-4.08,2.31-5.57s3.46-2.24,5.77-2.24c0.81,0,1.63,0.11,2.45,0.33
		C519,217.07,519.87,217.4,520.79,217.86z"/>
	<path class="st2" d="M530.25,225.01c0.08,1.54,0.61,2.74,1.56,3.58c0.96,0.84,2.26,1.26,3.92,1.26c1.25,0,2.61-0.33,4.09-1
		s2.37-1,2.68-1c0.32,0,0.59,0.1,0.8,0.3s0.32,0.45,0.32,0.75c0,0.31-0.11,0.59-0.34,0.85c-0.22,0.26-0.58,0.51-1.07,0.75
		c-1.07,0.52-2.17,0.92-3.31,1.19c-1.14,0.28-2.27,0.41-3.39,0.41c-2.44,0-4.39-0.7-5.85-2.11c-1.46-1.41-2.2-3.27-2.2-5.59
		c0-2.36,0.78-4.27,2.33-5.74c1.55-1.46,3.57-2.2,6.06-2.2c2.25,0,4.12,0.68,5.61,2.05c1.49,1.37,2.23,3.03,2.23,4.97
		c0,0.6-0.13,1-0.38,1.2c-0.25,0.2-0.93,0.3-2.04,0.3h-0.24H530.25z M530.33,222.91h10.44c-0.16-1.27-0.69-2.29-1.59-3.07
		c-0.9-0.77-2.01-1.16-3.33-1.16c-1.42,0-2.62,0.37-3.59,1.12C531.28,220.55,530.64,221.59,530.33,222.91z"/>
	<path class="st2" d="M461.8,118.19c0.44,0,0.77,0.1,1,0.29s0.34,0.48,0.34,0.85c0,0.38-0.11,0.67-0.33,0.87
		c-0.22,0.19-0.54,0.29-0.95,0.29h-10.48c-0.44,0-0.77-0.1-1-0.29s-0.34-0.48-0.34-0.87c0-0.37,0.11-0.66,0.33-0.85
		c0.22-0.19,0.54-0.29,0.95-0.29h2.73v-9.79h-2.63c-0.44,0-0.78-0.1-1.02-0.3c-0.24-0.2-0.36-0.49-0.36-0.87
		c0-0.38,0.11-0.67,0.34-0.87s0.55-0.29,0.98-0.29h2.53v-1.09c0-1.93,0.55-3.34,1.65-4.21c1.1-0.87,2.88-1.31,5.34-1.31
		c1.2,0,2.08,0.13,2.65,0.4c0.57,0.27,0.86,0.68,0.86,1.25c0,0.33-0.12,0.6-0.37,0.82c-0.25,0.21-0.56,0.32-0.95,0.32
		c-0.19,0-0.65-0.06-1.39-0.19c-0.73-0.13-1.36-0.19-1.88-0.19c-1.21,0-2.07,0.25-2.6,0.76c-0.52,0.51-0.79,1.35-0.79,2.53v0.91
		h5.67c0.44,0,0.77,0.1,1,0.29c0.23,0.19,0.34,0.48,0.34,0.87c0,0.36-0.12,0.65-0.35,0.86c-0.23,0.21-0.56,0.31-0.96,0.31h-5.55
		v9.79H461.8z"/>
	<path class="st2" d="M484.98,113.09c0,2.29-0.78,4.16-2.34,5.61c-1.56,1.45-3.59,2.18-6.08,2.18c-2.48,0-4.5-0.73-6.06-2.18
		s-2.34-3.32-2.34-5.61c0-2.29,0.78-4.15,2.34-5.6s3.58-2.17,6.06-2.17s4.5,0.73,6.07,2.18
		C484.2,108.95,484.98,110.81,484.98,113.09z M476.56,118.62c1.65,0,3-0.52,4.05-1.56c1.05-1.04,1.58-2.37,1.58-3.98
		s-0.53-2.94-1.59-3.99c-1.06-1.05-2.4-1.58-4.04-1.58c-1.63,0-2.98,0.53-4.03,1.58c-1.05,1.05-1.58,2.38-1.58,3.99
		c0,1.62,0.52,2.95,1.57,3.99C473.57,118.1,474.92,118.62,476.56,118.62z"/>
	<path class="st2" d="M494.69,118.22h5.32c0.42,0,0.72,0.09,0.92,0.26c0.2,0.18,0.3,0.46,0.3,0.84c0,0.44-0.09,0.74-0.28,0.91
		c-0.19,0.17-0.53,0.25-1.03,0.25h-10.48c-0.42,0-0.73-0.1-0.95-0.29c-0.21-0.19-0.32-0.48-0.32-0.87c0-0.37,0.11-0.65,0.33-0.83
		c0.22-0.18,0.56-0.27,1.02-0.27h2.79v-10.29h-1.09c-1.04,0-1.68-0.08-1.94-0.25s-0.38-0.46-0.38-0.9c0-0.37,0.1-0.65,0.31-0.84
		c0.21-0.19,0.53-0.28,0.95-0.28h3.66c0.29,0,0.51,0.06,0.66,0.17c0.15,0.11,0.22,0.28,0.22,0.49v2.73
		c1.02-1.27,2.07-2.22,3.17-2.84c1.1-0.62,2.29-0.93,3.56-0.93c0.95,0,1.72,0.19,2.31,0.57c0.59,0.38,0.88,0.88,0.88,1.48
		c0,0.39-0.15,0.74-0.44,1.05c-0.29,0.3-0.62,0.46-0.97,0.46c-0.25,0-0.66-0.16-1.24-0.49c-0.58-0.33-1.1-0.49-1.56-0.49
		c-0.83,0-1.71,0.3-2.64,0.89c-0.92,0.59-1.95,1.53-3.07,2.82V118.22z"/>
	<path class="st2" d="M716.16,177.49c0.52,0,0.9,0.09,1.14,0.26c0.23,0.18,0.35,0.46,0.35,0.84c0,0.43-0.11,0.73-0.34,0.9
		c-0.22,0.17-0.65,0.26-1.28,0.26h-7.84c-0.36,0-0.64-0.1-0.83-0.3c-0.19-0.2-0.29-0.48-0.29-0.86s0.09-0.65,0.28-0.83
		c0.19-0.18,0.48-0.27,0.87-0.27h2.07v-14.44h-1.12c-0.94,0-1.53-0.08-1.75-0.25c-0.23-0.17-0.34-0.47-0.34-0.91
		c0-0.37,0.1-0.66,0.29-0.86c0.19-0.2,0.47-0.3,0.83-0.3h7.42c2.6,0,4.57,0.5,5.92,1.51c1.35,1,2.02,2.49,2.02,4.44
		c0,1.96-0.67,3.43-2,4.42s-3.31,1.49-5.93,1.49h-2.81v4.89H716.16z M712.81,163.04v7.44h3c1.68,0,2.93-0.31,3.77-0.93
		c0.83-0.62,1.25-1.56,1.25-2.81c0-1.23-0.42-2.15-1.26-2.77c-0.84-0.62-2.09-0.93-3.76-0.93H712.81z"/>
	<path class="st2" d="M733.64,177.49h5.32c0.42,0,0.72,0.09,0.92,0.26c0.2,0.18,0.3,0.46,0.3,0.84c0,0.44-0.09,0.74-0.28,0.91
		c-0.19,0.17-0.53,0.25-1.03,0.25h-10.48c-0.42,0-0.73-0.1-0.95-0.29c-0.21-0.19-0.32-0.48-0.32-0.87c0-0.37,0.11-0.65,0.33-0.83
		c0.22-0.18,0.56-0.27,1.02-0.27h2.79V167.2h-1.09c-1.04,0-1.68-0.08-1.94-0.25s-0.38-0.46-0.38-0.9c0-0.37,0.1-0.65,0.31-0.84
		c0.21-0.19,0.53-0.28,0.95-0.28h3.66c0.29,0,0.51,0.06,0.66,0.17c0.15,0.11,0.22,0.28,0.22,0.49v2.73
		c1.02-1.27,2.07-2.22,3.17-2.84c1.1-0.62,2.29-0.93,3.56-0.93c0.95,0,1.72,0.19,2.31,0.57c0.59,0.38,0.88,0.88,0.88,1.48
		c0,0.39-0.15,0.74-0.44,1.05c-0.29,0.3-0.62,0.46-0.97,0.46c-0.25,0-0.66-0.16-1.24-0.49c-0.58-0.33-1.1-0.49-1.56-0.49
		c-0.83,0-1.71,0.3-2.64,0.89c-0.92,0.59-1.95,1.53-3.07,2.82V177.49z"/>
	<path class="st2" d="M749.49,173.05c0.08,1.54,0.61,2.74,1.56,3.58c0.96,0.84,2.26,1.26,3.92,1.26c1.25,0,2.61-0.33,4.09-1
		s2.37-1,2.68-1c0.32,0,0.59,0.1,0.8,0.3s0.32,0.45,0.32,0.75c0,0.31-0.11,0.59-0.34,0.85c-0.22,0.26-0.58,0.51-1.07,0.75
		c-1.07,0.52-2.17,0.92-3.31,1.19c-1.14,0.28-2.27,0.41-3.39,0.41c-2.44,0-4.39-0.7-5.85-2.11c-1.46-1.41-2.2-3.27-2.2-5.59
		c0-2.36,0.78-4.27,2.33-5.74c1.55-1.46,3.57-2.2,6.06-2.2c2.25,0,4.12,0.68,5.61,2.05c1.49,1.37,2.23,3.03,2.23,4.97
		c0,0.6-0.13,1-0.38,1.2c-0.25,0.2-0.93,0.3-2.04,0.3h-0.24H749.49z M749.57,170.95h10.44c-0.16-1.27-0.69-2.29-1.59-3.07
		c-0.9-0.77-2.01-1.16-3.33-1.16c-1.42,0-2.62,0.37-3.59,1.12C750.52,168.58,749.88,169.62,749.57,170.95z"/>
	<path class="st2" d="M767.62,178.59v-2.85c0-0.47,0.09-0.81,0.26-1.01c0.18-0.2,0.46-0.3,0.86-0.3c0.44,0,0.79,0.3,1.04,0.9
		c0.17,0.36,0.33,0.64,0.46,0.82c0.45,0.58,1.11,1.04,1.99,1.39c0.88,0.35,1.84,0.52,2.9,0.52c1.13,0,2.04-0.23,2.73-0.69
		c0.68-0.46,1.03-1.06,1.03-1.81c0-0.76-0.28-1.3-0.83-1.62c-0.55-0.32-1.49-0.48-2.83-0.48h-0.88c-2.18,0-3.84-0.38-4.99-1.14
		s-1.71-1.86-1.71-3.3c0-1.41,0.56-2.51,1.67-3.29c1.12-0.78,2.69-1.17,4.71-1.17c0.82,0,1.66,0.12,2.52,0.34
		c0.86,0.23,1.3,0.34,1.35,0.34c0.12,0,0.34-0.1,0.67-0.31c0.33-0.21,0.66-0.31,0.98-0.31c0.36,0,0.63,0.13,0.81,0.4
		c0.18,0.27,0.26,0.67,0.26,1.2v1.88c0,0.57-0.09,0.98-0.26,1.23s-0.44,0.38-0.82,0.38c-0.32,0-0.72-0.27-1.19-0.82
		c-0.33-0.37-0.6-0.66-0.82-0.85c-0.57-0.52-1.17-0.9-1.81-1.13c-0.64-0.23-1.39-0.34-2.26-0.34c-1,0-1.81,0.22-2.43,0.67
		c-0.62,0.44-0.92,1.01-0.92,1.69c0,0.67,0.31,1.15,0.95,1.44c0.63,0.29,1.99,0.46,4.07,0.5c2.22,0.05,3.85,0.44,4.87,1.16
		c1.03,0.72,1.54,1.84,1.54,3.34c0,1.44-0.57,2.6-1.7,3.46c-1.13,0.87-2.66,1.3-4.58,1.3c-0.61,0-1.29-0.06-2.04-0.17
		s-1.69-0.3-2.82-0.57c-0.37,0.25-0.69,0.43-0.96,0.55c-0.27,0.12-0.49,0.18-0.67,0.18c-0.37,0-0.66-0.13-0.86-0.39
		C767.72,179.46,767.62,179.09,767.62,178.59z"/>
	<path class="st2" d="M787.32,178.59v-2.85c0-0.47,0.09-0.81,0.26-1.01c0.18-0.2,0.46-0.3,0.86-0.3c0.44,0,0.79,0.3,1.04,0.9
		c0.17,0.36,0.33,0.64,0.46,0.82c0.45,0.58,1.11,1.04,1.99,1.39c0.88,0.35,1.84,0.52,2.9,0.52c1.13,0,2.04-0.23,2.73-0.69
		c0.68-0.46,1.03-1.06,1.03-1.81c0-0.76-0.28-1.3-0.83-1.62c-0.55-0.32-1.49-0.48-2.83-0.48h-0.88c-2.18,0-3.84-0.38-4.99-1.14
		s-1.71-1.86-1.71-3.3c0-1.41,0.56-2.51,1.67-3.29c1.12-0.78,2.69-1.17,4.71-1.17c0.82,0,1.66,0.12,2.52,0.34
		c0.86,0.23,1.3,0.34,1.35,0.34c0.12,0,0.34-0.1,0.67-0.31c0.33-0.21,0.66-0.31,0.98-0.31c0.36,0,0.63,0.13,0.81,0.4
		c0.18,0.27,0.26,0.67,0.26,1.2v1.88c0,0.57-0.09,0.98-0.26,1.23s-0.44,0.38-0.82,0.38c-0.32,0-0.72-0.27-1.19-0.82
		c-0.33-0.37-0.6-0.66-0.82-0.85c-0.57-0.52-1.17-0.9-1.81-1.13c-0.64-0.23-1.39-0.34-2.26-0.34c-1,0-1.81,0.22-2.43,0.67
		c-0.62,0.44-0.92,1.01-0.92,1.69c0,0.67,0.31,1.15,0.95,1.44c0.63,0.29,1.99,0.46,4.07,0.5c2.22,0.05,3.85,0.44,4.87,1.16
		c1.03,0.72,1.54,1.84,1.54,3.34c0,1.44-0.57,2.6-1.7,3.46c-1.13,0.87-2.66,1.3-4.58,1.3c-0.61,0-1.29-0.06-2.04-0.17
		s-1.69-0.3-2.82-0.57c-0.37,0.25-0.69,0.43-0.96,0.55c-0.27,0.12-0.49,0.18-0.67,0.18c-0.37,0-0.66-0.13-0.86-0.39
		C787.42,179.46,787.32,179.09,787.32,178.59z"/>
</g>
<g id="sjp">
</g>
<g id="sojourners_for_justice_press">
</g>
<g id="_x2B_">
</g>
</svg>
